<svg xmlns="http://www.w3.org/2000/svg" viewBox="0 0 800 400" fill="none">
  <defs>
    <linearGradient id="c4bg" x1="0%" y1="0%" x2="100%" y2="100%">
      <stop offset="0%" style="stop-color:#083535"/>
      <stop offset="100%" style="stop-color:#0d4f4f"/>
    </linearGradient>
  </defs>
  <rect width="800" height="400" fill="url(#c4bg)"/>
  <!-- Mobile phone frame -->
  <rect x="300" y="20" width="200" height="360" rx="24" fill="#1a1a1a"/>
  <rect x="310" y="35" width="180" height="330" rx="16" fill="#fff"/>
  <!-- Phone content -->
  <rect x="320" y="50" width="160" height="35" rx="6" fill="#0d4f4f"/>
  <text x="400" y="73" font-family="Arial" font-size="11" fill="#fff" text-anchor="middle">ExpenseTracker</text>
  <rect x="330" y="100" width="140" height="50" rx="6" fill="#f8f9fa"/>
  <text x="340" y="120" font-family="Arial" font-size="9" fill="#6c757d">Balance</text>
  <text x="340" y="138" font-family="Arial" font-size="14" font-weight="bold" fill="#0d4f4f">$12,456</text>
  <rect x="330" y="160" width="140" height="30" rx="6" fill="#d4a853"/>
  <text x="400" y="180" font-family="Arial" font-size="10" fill="#fff" text-anchor="middle">+ Add Expense</text>
  <rect x="330" y="200" width="140" height="35" rx="4" fill="#f8f9fa"/>
  <text x="340" y="220" font-family="Arial" font-size="9" fill="#1a1a1a">☕ Coffee</text>
  <text x="460" y="220" font-family="Arial" font-size="9" fill="#dc3545" text-anchor="end">-$4.50</text>
  <rect x="330" y="240" width="140" height="35" rx="4" fill="#f8f9fa"/>
  <text x="340" y="260" font-family="Arial" font-size="9" fill="#1a1a1a">🛒 Groceries</text>
  <text x="460" y="260" font-family="Arial" font-size="9" fill="#dc3545" text-anchor="end">-$52</text>
  <rect x="330" y="280" width="140" height="35" rx="4" fill="#f8f9fa"/>
  <text x="340" y="300" font-family="Arial" font-size="9" fill="#1a1a1a">⛽ Gas</text>
  <text x="460" y="300" font-family="Arial" font-size="9" fill="#dc3545" text-anchor="end">-$45</text>
  <rect x="330" y="325" width="140" height="30" rx="4" fill="#f8f9fa"/>
  <rect x="345" y="335" width="20" height="12" rx="2" fill="#0d4f4f"/>
  <rect x="380" y="335" width="20" height="12" rx="2" fill="#6c757d"/>
  <rect x="415" y="335" width="20" height="12" rx="2" fill="#6c757d"/>
  <rect x="450" y="335" width="20" height="12" rx="2" fill="#6c757d"/>
  <!-- Notch -->
  <rect x="365" y="40" width="70" height="8" rx="4" fill="#1a1a1a"/>
  <!-- Text descriptions -->
  <text x="100" y="150" font-family="Arial" font-size="14" font-weight="bold" fill="#fff">Mobile</text>
  <text x="100" y="175" font-family="Arial" font-size="14" font-weight="bold" fill="#fff">Responsive</text>
  <text x="100" y="200" font-family="Arial" font-size="12" fill="rgba(255,255,255,0.8)">Track expenses</text>
  <text x="100" y="220" font-family="Arial" font-size="12" fill="rgba(255,255,255,0.8)">on the go!</text>
  <text x="550" y="150" font-family="Arial" font-size="14" font-weight="bold" fill="#fff">Works on</text>
  <text x="550" y="175" font-family="Arial" font-size="14" font-weight="bold" fill="#fff">All Devices</text>
  <text x="550" y="200" font-family="Arial" font-size="12" fill="rgba(255,255,255,0.8)">iOS, Android</text>
  <text x="550" y="220" font-family="Arial" font-size="12" fill="rgba(255,255,255,0.8)">& Web</text>
</svg>

