<svg xmlns="http://www.w3.org/2000/svg" viewBox="0 0 400 400" fill="none">
  <defs>
    <linearGradient id="g1bg" x1="0%" y1="0%" x2="100%" y2="100%">
      <stop offset="0%" style="stop-color:#0d4f4f"/>
      <stop offset="100%" style="stop-color:#1a7a7a"/>
    </linearGradient>
  </defs>
  <rect width="400" height="400" fill="url(#g1bg)"/>
  <rect x="20" y="20" width="360" height="360" rx="12" fill="#fff" opacity="0.95"/>
  <rect x="40" y="50" width="100" height="60" rx="8" fill="#f8f9fa"/>
  <text x="55" y="75" font-family="Arial" font-size="10" fill="#6c757d">Balance</text>
  <text x="55" y="95" font-family="Arial" font-size="18" font-weight="bold" fill="#0d4f4f">$12,456</text>
  <rect x="160" y="50" width="100" height="60" rx="8" fill="#f8f9fa"/>
  <text x="175" y="75" font-family="Arial" font-size="10" fill="#6c757d">Spent</text>
  <text x="175" y="95" font-family="Arial" font-size="18" font-weight="bold" fill="#d4a853">$3,245</text>
  <rect x="280" y="50" width="100" height="60" rx="8" fill="#f8f9fa"/>
  <text x="295" y="75" font-family="Arial" font-size="10" fill="#6c757d">Saved</text>
  <text x="295" y="95" font-family="Arial" font-size="18" font-weight="bold" fill="#28a745">$1,890</text>
  <rect x="40" y="130" width="320" height="200" rx="8" fill="#f8f9fa"/>
  <rect x="60" y="270" width="40" height="40" fill="#0d4f4f"/>
  <rect x="115" y="240" width="40" height="70" fill="#d4a853"/>
  <rect x="170" y="260" width="40" height="50" fill="#0d4f4f"/>
  <rect x="225" y="220" width="40" height="90" fill="#d4a853"/>
  <rect x="280" y="250" width="40" height="60" fill="#0d4f4f"/>
  <text x="180" y="165" font-family="Arial" font-size="14" font-weight="bold" fill="#1a1a1a" text-anchor="middle">Monthly Overview</text>
</svg>

